<?xml version="1.0" standalone="no"?>
<!DOCTYPE svg PUBLIC "-//W3C//DTD SVG 1.1//EN" "http://www.w3.org/Graphics/SVG/1.1/DTD/svg11.dtd" >
<!--
2013-9-30: Created.
-->
<svg>
<metadata>
Created by iconfont
</metadata>
<defs>

<font id="newim" horiz-adv-x="1024" >
  <font-face
    font-family="newim"
    font-weight="500"
    font-stretch="normal"
    units-per-em="1024"
    ascent="896"
    descent="-128"
  />
    <missing-glyph />
    

    
    <glyph glyph-name="lianjie" unicode="&#40964;" d="M581.47538224 452.17813134c-4.47535002 4.4738683-9.24564787 8.50679659-14.16119633 12.24625948l-0.00889313-0.00815156c-5.05931667 4.86589612-11.92907953 7.86280273-19.50286271 7.86280273-15.54478304 0-28.14527595-12.60123448-28.14527595-28.14527595 0-6.87791441 2.47074315-13.17779044 6.56962689-18.06666023l-0.00074085 0c0.00074086-0.00074086 0.00222328-0.00222328 0.00370571-0.00296414 1.9690358-2.34846548 4.31157227-4.3730819 6.9416466-5.97602625 2.65378814-2.18839343 5.25866623-4.34343908 7.69457842-6.77935128l2.32030508-2.32104595c29.17018264-29.13386997 20.46181322-79.32834123-8.70836867-108.49926473L410.0025542 178.05015317000004c-29.16944107-29.13386997-76.59229379-29.13386997-105.76321655 0l-2.3388315 2.34031393c-29.17166435 29.16944107-29.17166435 76.62712403 0 105.72616304l54.99218935 54.97366224c7.05577199 5.60030155 11.58522094 14.24419649 11.58522092 23.9507932 0 16.88316395-13.68616764 30.56933159-30.56933159 30.56933158-6.37101892 0-12.28479541-1.95050867-17.18181675-5.28460403-0.01556226 0.03260694-0.0318661 0.06373219-0.04816994 0.09708069l-0.58618994-0.54839558c-2.16467891-1.55625686-4.12185742-3.38152372-5.81224922-5.43874708l-57.14871669-53.47595013c-53.71976391-53.75681741-53.71976391-141.67643782 0-195.35840663l2.32030508-2.31956352c53.71976391-53.68271039 141.60158922-53.68271039 195.32135313 0l124.43829957 124.47535308c53.64565615 53.71679977 58.19437307 138.45498613 4.54945776 192.13769653L581.47538224 452.17813134zM760.84806726 634.71372255l-2.3203051 2.32030509c-53.71902305 53.71976391-141.60084837 53.71976391-195.32061228 0L438.76885104 512.55941542c-53.71976391-53.71976391-56.67813386-131.29398116-2.95836995-185.04857601l2.28325086-2.24842064c2.43961791-2.43887706 4.97186995-4.73843175 7.5567385-6.94386987 1.87121351-2.0898303 4.06924094-3.87878524 6.51256455-5.29349646 0.01852712-0.01482141 0.03779509-0.03038438 0.05632147-0.04520578l0.00815157 0.00741069c3.89434748-2.2395275 8.40675173-3.52751593 13.22225464-3.52751593 14.67476096 0 26.57049197 11.89721345 26.57049197 26.57049197 0 4.14186625-0.94857566 8.06215156-2.6397083 11.55705984l0 0c-3.51269379 7.88725812-10.08824969 12.6886812-14.63622501 17.23739739l-2.28399245 2.24693819c-29.16944107 29.16944107-18.09259806 71.54779779 11.07684373 100.7172396l124.51166573 124.43904042c29.09755732 29.17092349 76.53671318 29.17092349 105.70763593 0l2.32178679-2.28325087c29.17018264-29.17166435 29.17018264-76.6478737 0-105.78174368l-54.81210775-54.84916199c-7.45669365-5.5247121-12.29220611-14.38648297-12.29220611-24.37839354 0-16.74606487 13.57574724-30.32255369 30.3225537-30.32255369 5.82855233 0 11.27100513 1.64815014 15.89234662 4.49832369 0.03483022-0.05928562 0.0674379-0.1141254 0.10226813-0.17415259l0.85001252 0.78479792c2.61895791 1.7533824 4.94519128 3.90620477 6.90088737 6.36731394l57.76677274 53.30327997C814.56783117 493.11139249 814.56783117 580.99470023 760.84806726 634.71372255z"  horiz-adv-x="1024" />

    
    <glyph glyph-name="weibiaoti1" unicode="&#40996;" d="M511.00721359 723.5273895299999C324.26047516 723.5273895299999 172.87306213 572.1399765 172.87306213 385.39323806S324.26047516 47.26047706999998 511.00721359 47.26047706999998s338.13415146 151.38741302 338.13415146 338.13276099S697.75395203 723.5273895299999 511.00721359 723.5273895299999zM511.00721359 92.29321288999995c-161.87563133 0-293.10141563 131.2257843-293.10141563 293.10002517S349.13158226 678.49465371 511.00721359 678.49465371s293.10141563-131.2257843 293.10141563-293.10141565S672.88284493 92.29321288999995 511.00721359 92.29321288999995zM652.18032837 578.10920906L548.85267639 402.32622529l81.41821861 0 0-38.84381104-94.86393928 0 0-53.5326004 94.86393928 0 0-39.3388138-94.86393928 0 0-77.93234252-48.79948425 0 0 77.93234252-98.34842491 1e-8 0 39.33881379 98.34842491 0 0 53.5326004-98.34842491 0L388.25904656 402.32622529l83.90713691 0-102.33208465 175.78298377 55.02595138 0c47.80391692-87.31236649 76.85056687-142.66785622 87.14412117-166.07342148l0.99556732 0c3.48448563 9.62474441 13.02858353 29.04525948 28.6322937 58.26154518l58.51182748 107.81048584L652.18032837 578.1078186z"  horiz-adv-x="1024" />

    
    <glyph glyph-name="zixunfuwu" unicode="&#40965;" d="M325.77806002 408.82959231c20.58621445 0 37.24438814 16.68300297 37.24438813 37.24438814s-16.658173 37.24438814-37.24438813 37.24438814-37.24438814-16.68300297-37.24438814-37.24438814S305.19184489 408.82959231 325.77806002 408.82959231zM449.92602025 408.82959231c20.58621445 0 37.24438814 16.68300297 37.24438812 37.24438814s-16.658173 37.24438814-37.24438812 37.24438814-37.24438814-16.68300297-37.24438815-37.24438814S429.33980509 408.82959231 449.92602025 408.82959231zM574.07397975 408.82959231c20.58621445 0 37.24438814 16.68300297 37.24438815 37.24438814s-16.658173 37.24438814-37.24438815 37.24438814-37.24438814-16.68300297-37.24438812-37.24438814S553.48776531 408.82959231 574.07397975 408.82959231zM735.46632812 259.85203979000005L735.46632812 632.29592043c0 24.82959231-24.82959231 24.82959231-24.82959232 24.82959231L189.21530398 657.12551206c0 0-24.82959231 0-24.82959231-24.82959231l0-372.44388064c0-24.82959231 24.82959231-24.82959231 24.82959231-24.8295923l74.48877628-2e-8 0-124.14796022 124.14796021 124.14796024 322.784696 0C735.46632812 235.02244814999995 735.46632812 259.85203979000005 735.46632812 259.85203979000005zM685.80714417 284.6816321L367.29065463 284.6816321l-14.54889974-14.54889973L313.36326352 230.75424098999997 313.36326352 235.02244814999995l0 49.65918396L214.04489562 284.6816321 214.04489562 607.4663281200001l471.76224855-1e-8L685.80714417 284.6816321zM834.78469602 582.6367364800001l-74.48877628 0 1e-8-49.65918395 49.65918395 0 0-322.78469601-99.3183679 0 0-53.92739111L656.71058646 210.19285582999998 412.6816321 210.19285582999998l1e-8-49.65918394 223.46632811 0 124.14796021-124.14796022L760.29592043 160.53367188000004l74.48877627 1e-8c0 0 24.82959231 0 24.82959231 24.82959231L859.61428833 557.80714417C859.61428833 582.6367364800001 834.78469602 582.6367364800001 834.78469602 582.6367364800001z"  horiz-adv-x="1024" />

    
    <glyph glyph-name="xiaoyouxi" unicode="&#40966;" d="M468.54821397 470.90357209L425.09642791 470.90357209l0-43.45178605L381.64464188 427.45178603 381.64464188 470.90357209 338.19285583 470.90357209 338.19285583 514.35535812l43.45178605 0L381.64464188 557.80714417l43.45178603 0 0-43.45178605 43.45178606 0L468.54821397 470.90357209zM571.65930224 362.36101054999995l189.84085321-194.44674253c10.51533222-16.12061262-4.3886304-28.89543773-10.99330188-36.32569313C688.24044418 72.71140479999997 604.4654007 36.38571166999998 512 36.38571166999998c-191.96999073 0-347.61428833 155.6442976-347.61428833 347.61428833 0 191.96999073 155.6442976 347.61428833 347.61428833 347.61428833 102.50276327 0 206.39598369-55.66173792 258.01670553-115.27758838l-0.3476143-0.34761428c2.56365538-0.99939109 17.25035906-25.59310198 2.21604109-41.0619378L571.65930224 362.36101054999995zM512 360.92710161l218.56248379 233.59680177C675.29181194 651.96716452 598.03453636 688.16250229 512 688.16250229 344.01539517 688.16250229 207.83749771 551.9846048300001 207.83749771 384s136.17789745-304.16250229 304.16250229-304.16250229c76.82275772 0 146.69322967 28.76508235 200.18237829 75.73646308L512 360.92710161zM789.00513601 300.70292615000005c36.02153063 0 65.17767906 29.19960022 65.17767906 65.17767908s-29.15614844 65.17767906-65.17767907 65.17767906-65.17767906-29.19960022-65.17767905-65.17767906S752.98360539 300.70292615000005 789.00513601 300.70292615000005z"  horiz-adv-x="1024" />

    
    <glyph glyph-name="unie616" unicode="&#40967;" d="M898.28753662 483.66796875l-277.74536133 23.9529419-108.54217529 255.72052002-108.54217529-256.11602784-277.74536133-23.55743408 210.90454103-182.72460938-63.35540774-271.56555176 238.73840333 144.08843995 238.73840332-144.08843993-62.95989989 271.56555175 210.53375243 182.72460937zM512 245.69586182l-145.25024414-87.67913819 38.63616943 165.32226563-128.2434082 111.2612915 169.20318604 14.68322754 65.67901611 155.68176269 66.04980469-156.05255126 169.20318603-14.68322754-128.2434082-111.26129151 38.63616943-165.32226562-145.62103272 88.074646z"  horiz-adv-x="1024" />

    
    <glyph glyph-name="pop-right" unicode="&#75;" d="M619.52 139.94666700000005L424.96 336.21333300000003c-27.306667 27.306667-27.306667 69.973333 0 97.28l194.56 194.56"  horiz-adv-x="1024" />

    
    <glyph glyph-name="pop-left" unicode="&#74;" d="M404.48 628.0533330000001l194.56-194.56c27.306667-27.306667 27.306667-69.973333 0-97.28L404.48 139.94666700000005"  horiz-adv-x="1024" />

    
    <glyph glyph-name="loading" unicode="&#233;" d="M699.8 492.7l0.3-0.5c10-16.5 27.9-25.7 46.1-25.7 8.8 0 17.7 2.2 25.8 6.7l150.6 86.8c12.2 7 21 18.5 24.5 32.2 3.5 13.6 1.6 27.7-5.6 39.7-7 12.3-18.7 21.4-32.3 25-13.5 3.6-27.5 1.6-39.5-5.6l-150.3-86.6C694.4 550.5 685.6 518.2 699.8 492.7zM344.9 93.89999999999998l-0.3 0.2c-12.3 6.9-26.5 8.6-40.1 5-13.6-3.6-25.1-12.3-32.3-24.4l-27.4-47.9c-7.2-12.3-9.1-26.6-5.4-40.2 3.7-13.7 12.6-25 24.9-32 8.1-4.7 17.1-7.2 26.3-7.2 4.5 0 9 0.6 13.4 1.7 13.7 3.6 25.3 12.5 32.5 24.9l27.2 47.6c7.1 11.8 9.1 25.7 5.7 39.3C365.9 74.79999999999995 357 86.79999999999995 344.9 93.89999999999998zM247.3 231.10000000000002c-14.1 25.1-46.4 33.9-72 19.7l-73.7-42.6c-12.3-7.1-21.1-18.7-24.6-32.6-3.5-13.6-1.5-27.7 5.7-39.6 6.7-11.9 17.7-20.5 31-24.3 4.9-1.4 9.9-2.1 14.8-2.1 9.1 0 18 2.3 26.2 6.9l73.1 42.6C253 173.70000000000005 261.7 206 247.3 231.10000000000002zM335.9 794.1c-7 12.2-18.5 20.9-32.2 24.6-13.6 3.6-27.6 1.7-39.5-5.4-12.2-7-21-18.4-24.6-31.9-3.7-13.6-1.8-27.8 5.2-39.9L331.2 591.3l0.1-0.2c10.1-16.8 27.9-26.2 46-26.2 9 0 18.1 2.3 26.4 7.2 12 6.9 20.6 18.1 24.3 31.6 3.7 13.8 1.8 28.3-5.4 40.6L335.9 794.1zM235.7 384.2c0 29.1-23.6 52.7-52.7 52.7L68.7 436.9c-29.1 0-52.7-23.8-52.7-53 0-29.1 23.6-52.7 52.7-52.7L183 331.20000000000005C212.1 331.20000000000005 235.7 355 235.7 384.2zM101.7 560l124.7-71.8c8.2-4.7 17.1-6.9 26-6.9 18.3 0 36.2 9.5 46.1 26.3l0.2 0.3c14.1 25.2 5.3 57.3-19.6 71.5L154.8 651.5c-12.6 7.2-27.1 9-41 5.1-13.4-3.8-24.5-12.6-31.2-24.7-7.2-12.3-9.2-26.5-5.5-40.2C80.7 578.1 89.5 566.9 101.7 560zM511.9 19.100000000000023c-29.1 0-52.7-23.6-52.7-52.7l0-25.7c0-29.1 23.6-52.7 52.7-52.7 29.4 0 53.2 23.6 53.2 52.7l0 25.7C565.1-4.5 541.2 19.100000000000023 511.9 19.100000000000023zM707.2 46.10000000000002l-0.3-0.1c-12.2-7.2-21.1-19.2-24.5-32.9-3.3-13.5-1.2-27.3 6-39.1 7-12.1 18.2-20.7 31.6-24.4 4.5-1.2 9.1-1.8 13.7-1.8 9.1 0 18 2.4 26.1 7.1 12.2 6.7 20.9 17.9 24.7 31.4 3.8 13.7 1.8 28.5-5.4 40.7C764.4 52.10000000000002 732.7 60.5 707.2 46.10000000000002zM992.9 421.2c-9.9 10.1-23.3 15.6-37.7 15.6L782 436.8c-29.1 0-52.7-23.6-52.7-52.7 0-29.2 23.7-53 52.7-53l173.3 0c14.3 0 27.6 5.5 37.5 15.5 9.8 9.9 15.2 23.1 15.2 37.1C1008.2 397.9 1002.8 411.2 992.9 421.2zM692.8 591.4l86.7 150c7.2 12.3 9.2 26.6 5.5 40.3-3.7 13.7-12.6 25.1-25 32-25.5 14.4-57.1 5.9-72-19.4L601.3 644.3l-0.1-0.1c-14.4-25.3-5.8-57.8 19.3-72.3 8-4.6 17.2-7 26.4-7 4.7 0 9.5 0.6 14.2 1.9C674.8 570.5 686 579.3 692.8 591.4zM511.9 880c-28.6 0-52.7-24.3-52.7-53l0-173c0-29.3 23.6-53.2 52.7-53.2l0.1 0 0.1 0c14.2 0.2 27.5 5.7 37.5 15.7 10 10 15.5 23.3 15.5 37.5l0 173C565.1 856.3 541.2 880 511.9 880z"  horiz-adv-x="1024" />

    
    <glyph glyph-name="yinlexianxing" unicode="&#40968;" d="M808.88242938 699.53972637c0 1.93825633-0.33990653 3.7792834-0.92090904 5.49067197l-1.2750438 12.33859697c-0.93750878 9.10790685-8.99565911 15.27760085-17.97471772 13.69506054L378.94211305 658.81026077c-7.41232779-1.32405356-12.8065615-7.42813728-13.56542204-14.56695983-1.89003683-2.7137166-3.00461337-6.04084574-3.00461338-9.62567138L362.37207763 217.79058099999997c-14.58276933 8.23679857-31.54013898 12.98441951-49.61208595 12.98441951-54.79605165 0-99.22417113-43.47480121-99.22417113-97.05904781 0-53.5858271 44.42812025-97.02821905 99.22417113-97.02821907S411.98416359 80.13012561000005 411.98416359 133.71595271c0 3.74529291-0.21026724 7.42734704-0.63001227 11.04695341 0.41974502 1.45290182 0.63001227 3.00303211 0.63001227 4.58557243L411.98416359 483.55301116l347.28539037 61.24004191 0-229.97346277c-14.58276933 8.26920782-31.54013898 12.98441951-49.61208595 12.98441952-54.79605165 0-99.22417113-43.44239196-99.22417112-97.02821906 0-53.61665586 44.42812025-97.05904781 99.22417112-97.05904781s99.22417113 43.44239196 99.22417112 97.05904781c0 3.68205414-0.21026724 7.36410905-0.63001226 10.95130542 0.41974502 1.45290182 0.63001227 2.97062288 0.63001226 4.52075317L808.88163913 699.53972637zM312.75999168 85.32990081000003c-27.40593057 0-49.61208595 21.77060085-49.61208594 48.61133839s22.20615538 48.61133841 49.61208594 48.61133842 49.61208595-21.77060085 49.61208595-48.61133842S340.16592225 85.32990081000003 312.75999168 85.32990081000003zM709.65825825 182.55257760999996c-27.40672082 0-49.61287619 21.76901961-49.6128762 48.64216716 0 26.84231881 22.20615538 48.61133841 49.6128762 48.6113384 27.40593057 0 49.61208595-21.76901961 49.61208595-48.6113384C759.26955318 204.32159721000005 737.06418882 182.55257760999996 709.65825825 182.55257760999996zM759.26955318 595.21221829L411.98416359 533.9721763800001 411.98416359 614.14025428l347.28539037 60.39976162L759.26955318 595.21221829z"  horiz-adv-x="1024" />

    
    <glyph glyph-name="weixin" unicode="&#40969;" d="M747.25860972 587.80463273C655.52818614 677.92643102 543.89901674 704.06047955 421.18574168 670.95360974 205.10812147 612.65731396 138.2477691 387.87097864 247.41143239 241.36505591000002c5.29384271-7.10562152 6.29379924-20.21177479 4.28360916-29.42955867-5.87168272-26.93480429-14.45629257-53.26884457-21.62989586-79.93172412-3.83540767-14.2563008-6.10645523-28.74579364 6.66848652-40.18403483 13.73300379-12.29907323 28.44699211-9.77507137 43.45820145-2.14536184 24.62581346 12.51487449 49.6974577 24.18946869 73.97466966 37.33909848 15.81196512 8.56405657 30.00897992 9.00593536 47.84931612 4.0480464 35.58265214-9.8873199 72.39450085-15.35111509 91.14625933-19.11775074 111.48213936 2.01098032 192.81854656 32.24050452 257.97462409 100.02729842C854.88874245 319.91027871999995 854.13225342 482.80679838 747.25860972 587.80463273zM706.27698162 252.77325860999997C625.44964395 172.55142872 527.06021909 153.36727746999998 420.67983465 189.04873936c-35.07674513 11.76470896-63.87312975 14.83730333-94.31054969-5.78868247-2.76272635-1.87185582-6.52620026-2.26709558-20.4805378-6.83843977 28.0185521 48.6026434 7.27557477 79.00370136-16.36213888 113.47256719-52.4404218 76.46705175-41.74286014 175.06200162 20.68843431 246.21940113 101.9876885 116.24240805 301.73162707 116.16652231 403.72247732-0.15177225C787.88531281 451.62632741 786.305144 332.20223822 706.27698162 252.77325860999997zM611.13168487 487.95044933c-20.27422254 0.74305103-36.66007644-14.36380631-37.81733848-34.86884939-1.1841388-20.97774983 12.8516185-37.25688847 33.45151931-38.79990425 20.52559556-1.5366923 37.73591872 12.56309323 39.83543333 32.63495328C648.81543286 468.08806628 632.31970272 487.17261756 611.13168487 487.95044933zM414.06668217 487.98523006c-21.44176161-0.15888677-37.76437598-18.29565222-36.16839766-40.18719657 1.49874982-20.55563331 17.88618344-34.69257186 38.78804751-33.46179557 20.47500456 1.20548154 35.64905265 17.67907793 34.87912563 37.86713848C450.81845385 471.79541594 433.69903569 488.13067884 414.06668217 487.98523006z"  horiz-adv-x="1024" />

    
    <glyph glyph-name="address" unicode="&#40976;" d="M512 730.06933594C368.62841797 730.06933594 254.91992187 616.3608398399999 254.91992187 472.98925781c0-49.43847656 14.83154297-88.98925781 34.6069336-128.54003906 0-4.94384766 197.75390625-296.63085938 197.75390625-296.63085938C492.22460937 42.87451171999999 502.11230469 37.930664060000026 512 37.930664060000026c9.88769531 0 19.77539063 4.94384766 24.71923828 9.88769531 0 0 197.75390625 291.68701172 197.75390625 291.68701172 24.71923828 39.55078125 39.55078125 84.04541016 39.55078125 133.48388672C774.02392578 616.3608398399999 655.37158203 730.06933594 512 730.06933594zM685.03466797 364.22460937000005L685.03466797 364.22460937000005C685.03466797 359.28076172 685.03466797 359.28076172 685.03466797 364.22460937000005L600.98925781 235.68457031000003c0 0 0 0 0 0L512 107.14453125 423.01074219 235.68457031000003c0 0 0 0 0 0L338.96533203 359.28076172l0 0C319.18994141 393.88769531 304.35839844 433.43847656 304.35839844 472.98925781 304.35839844 586.6977539100001 398.29150391 680.63085938 512 680.63085938s207.64160156-88.98925781 207.64160156-202.69775391C719.64160156 433.43847656 704.81005859 393.88769531 685.03466797 364.22460937000005L685.03466797 364.22460937000005zM512 576.8100585899999C452.67382812 576.8100585899999 408.17919922 532.31542969 408.17919922 472.98925781S452.67382812 374.11230469 512 374.11230469s103.82080078 44.49462891 103.82080078 103.82080078S571.32617188 576.8100585899999 512 576.8100585899999zM512 423.55078125c-29.66308594 0-54.38232422 24.71923828-54.38232422 49.43847656s24.71923828 49.43847656 54.38232422 49.43847657 54.38232422-24.71923828 54.38232422-49.43847657S541.66308594 423.55078125 512 423.55078125z"  horiz-adv-x="1024" />

    
    <glyph glyph-name="dianhua" unicode="&#40977;" d="M693.49295498 92.55900908000001c-19.96602363 0-40.2018583 2.51823691-60.16788281 7.4647749-47.30688545 11.78175234-93.26471484 29.85909873-136.52443301 53.78235206C451.29249512 178.89857109000002 409.92145508 209.92685156000005 373.67682646 245.90166913999997l-0.17987431 0.17987432c-35.97481758 36.24462862-66.91316045 77.61566865-92.09553311 123.12381357-23.92325333 43.25971816-42.00059971 89.21754756-53.78235205 136.61436972-11.42200459 45.77795508-9.62326406 93.53452588 5.03647471 134.36594385 15.01948652 41.64085107 41.37104003 70.51064239 72.48925723 79.14459903 13.58049375 3.77735625 35.61506982 4.49685263 63.67542714-13.40061944 30.57859511-19.51633828 62.05656006-57.91945605 93.53452588-114.04017157l0.08993672-0.08993672c8.00439698-14.29999013 14.74967549-30.12890977 10.79244492-48.65594063-2.96792227-13.85030479-10.79244492-25.09243506-22.57419814-42.00059971-7.4647749-10.7025082-16.72829033-24.10312763-28.15029493-42.63015849-7.91446026-12.86099737 4.40691504-37.68362138 11.69181563-47.7565708l0.62955967-0.80943311 0.44968535-0.71949639c0.17987432-0.35974776 21.67482744-33.7263917 44.69871094-56.93014863l0 0c23.02388349-23.11382021 56.39052656-44.3389623 56.7502752-44.51883662l0.98930742-0.62955967 0.71949639-0.53962207c9.71320078-7.01508955 34.98551016-19.60627588 47.7565708-11.87168994 18.70690518 11.42200459 32.01758789 20.77545762 42.81003281 28.33016924 16.81822705 11.78175234 27.9704206 19.51633828 41.82072539 22.48426143 18.52703086 3.95722969 34.26601377-2.87798555 48.56600391-10.88238253 56.12071552-31.47796582 94.61377002-62.86599404 114.13010917-93.53452588 17.80753447-27.88048388 17.17797568-49.91505908 13.49055703-63.49555283l0-0.17987431c-8.63395664-31.02828047-37.50374707-57.46977158-79.14459901-72.48925723C744.6671334 96.69611309000004 719.39482402 92.55900908000001 693.49295498 92.55900908000001zM412.97931406 285.38403106c32.55720997-32.28739893 69.88108359-60.16788281 110.80243828-82.74208096 39.03267744-21.58489072 80.4936542-37.8634957 123.03387599-48.47606719 35.25532119-8.81383008 71.49994981-7.64464834 101.9886082 3.41760761 17.71759776 6.38552988 39.93204727 19.33646484 44.3389623 34.80563585 0.44968536 1.70880381 0 8.27420801-6.65534092 18.79684189-9.98301182 15.64904531-34.53582481 41.37104003-94.43389658 74.91755742-6.11571885 3.41760762-8.9937044 4.49685263-10.07294854 4.85660039-3.68741865-1.34905606-12.86099737-7.82452266-21.04526865-13.49055703-10.79244492-7.55471162-25.54212041-17.80753447-45.68801836-30.12890977l-0.08993672-0.08993671c-21.22514209-12.95093408-47.6666332-14.03017911-76.26661347-3.2377333-16.54841602 6.20565644-29.04966562 14.65973789-32.73708428 17.2679124-5.66603349 3.59748193-40.02198487 25.99180576-65.65404199 51.80373721l0 0c-25.63205713 25.72199472-48.20625528 60.07794521-51.71380049 65.56410527-2.51823691 3.59748193-11.06225684 16.09873066-17.2679124 32.82702099-10.79244492 28.689917-9.53332646 55.04147138 3.50754433 76.3565502 12.23143769 19.87608691 22.39432383 34.6257624 29.85909874 45.32827061 5.84590781 8.36414473 12.32137529 17.71759776 13.67043047 21.4050164-0.26981104 1.07924414-1.34905606 3.95722969-4.8566004 10.25282285-33.36664307 59.53832315-58.99870107 84.00119942-74.55780967 94.07414796-10.79244492 6.92515283-17.35784912 7.3748373-18.97671621 6.92515283-9.71320078-2.69811123-24.7326873-15.91885722-34.98551015-44.33896231-10.97231924-30.57859511-12.23143769-66.73328701-3.41760762-101.9886082 10.61257148-42.72009609 26.98111318-84.09113613 48.47606718-123.12381357C352.90136885 355.17517705 380.69191602 317.94124102 412.97931406 285.38403106z"  horiz-adv-x="1024" />

    
    <glyph glyph-name="gengduo" unicode="&#40978;" d="M269.32273824 384m-57.69948301 0a56.385355 56.385355 0 1 1 115.39896678 0 56.385355 56.385355 0 1 1-115.39896678 0ZM512 384m-57.699483 0a56.385355 56.385355 0 1 1 115.39896678 0 56.385355 56.385355 0 1 1-115.39896678 0ZM754.67726176 384m-57.699483 0a56.385355 56.385355 0 1 1 115.39896678 0 56.385355 56.385355 0 1 1-115.39896678 0Z"  horiz-adv-x="1024" />

    
    <glyph glyph-name="renzheng" unicode="&#40979;" d="M511.96629227 29.037356349999982c-103.5511361 0-296.12523846 158.42784508-296.12523845 308.24328329L215.84105309 635.7148799500001l29.44398393 0.48876668c0.62359903 0 66.35430055 1.3988839 134.17490193 28.9215088 69.55656539 28.26420203 114.42198287 60.70820228 114.84333411 61.01157468l17.57874954 12.80906003 17.73043539-12.80906003c0.42135052-0.32022665 45.28676799-32.74737264 114.84333413-61.01157468 67.82060137-27.52262487 133.55130289-28.92150879 134.24231809-28.9215088l29.30915158-0.48876668 0.13483234-298.4342403C808.15894691 187.48205566000001 615.58484455 29.037356349999982 511.96629227 29.037356349999982L511.96629227 29.037356349999982zM275.63913817 578.5123149l0-241.21482175c0-115.83772172 167.74812211-248.44519895 236.3271541-248.44519895 68.59588623 0 236.32715411 132.60747722 236.32715412 248.44519895L748.29344567 578.5123149c-29.30915159 3.16855711-76.8880672 11.17421917-126.30407147 31.23051063-50.6463481 20.5956201-89.10723593 42.97776688-110.03993614 56.30930134-20.86528405-13.33153444-59.37673381-35.71368124-109.97251999-56.30930134C352.52720537 589.6696805700001 304.93143553 581.68087201 275.63913817 578.5123149L275.63913817 578.5123149zM496.12350747 225.15080366999996l-125.73103437 107.107336 38.66313561 45.48901651 80.66336911-68.6633024 153.08511921 176.36052899 45.20249833-39.21931847L496.12350747 225.15080366999996 496.12350747 225.15080366999996zM496.12350747 225.15080366999996"  horiz-adv-x="1024" />

    
    <glyph glyph-name="caidan" unicode="&#40980;" d="M198.32138971 547.6584051899999C198.32138971 562.7227454599999 210.57179462 574.93480619 225.68154335 574.93480619L798.31845665 574.93480619C813.42905124 574.93480619 825.67861029 562.82777209 825.67861029 547.6584051899999 825.67861029 532.59406494 813.42820538 520.38200421 798.31845665 520.38200421L225.68154335 520.38200421C210.57094876 520.38200421 198.32138971 532.4890383 198.32138971 547.6584051899999ZM198.32138971 384C198.32138971 399.06434026 210.57179462 411.276401 225.68154335 411.276401L798.31845665 411.276401C813.42905124 411.276401 825.67861029 399.16936689 825.67861029 384 825.67861029 368.93565974 813.42820538 356.72359900000004 798.31845665 356.72359900000004L225.68154335 356.72359900000004C210.57094876 356.72359900000004 198.32138971 368.83063311 198.32138971 384ZM198.32138971 220.34159480999995C198.32138971 235.40593506000005 210.57179462 247.61799579 225.68154335 247.61799579L798.31845665 247.61799579C813.42905124 247.61799579 825.67861029 235.51096170000005 825.67861029 220.34159480999995 825.67861029 205.27725453999994 813.42820538 193.06519380999998 798.31845665 193.06519380999998L225.68154335 193.06519380999998C210.57094876 193.06519380999998 198.32138971 205.17222790999995 198.32138971 220.34159480999995Z"  horiz-adv-x="1024" />

    
    <glyph glyph-name="dizhi" unicode="&#40981;" d="M807.07291667 679.07291667L484.65494792 46.26041667000004l2.66308594 313.05761719L174.26041667 356.65494792000004z"  horiz-adv-x="1024" />

    
    <glyph glyph-name="yuyin" unicode="&#40982;" d="M607.91459961 39.90820312000005l-54.69477539 54.69873047c83.11201172 71.11625977 135.97954102 176.57841797 135.97954101 294.55839844 0 112.39145508-48.11352539 213.29736328-124.50585937 284.0972168L619.52275391 728.09179688c90.38935547-84.84038086 147.16450195-205.07475586 147.16450195-338.81572266 0-139.38881836-61.62802734-264.11616211-158.77265625-349.36787109zM460.31108398 187.51567382999997l-56.34404296 56.33613281c51.20244141 28.30649414 85.89243164 82.78374023 85.89243164 145.42426758 0 56.86611328-28.61894531 107.00463867-72.20390625 136.95249023l55.32758789 55.31967774C530.32387695 536.97055664 567.37109375 467.51938477 567.37109375 389.27607422c0-83.93466797-42.45380859-157.93022461-107.06000977-201.76040039zM312.67592773 322.83076172000005c-30.57275391 0-55.36318359 24.78251953-55.36318359 55.36713867 0 30.58857422 24.78647461 55.36713867 55.36318359 55.36713867 30.59648437 0 55.37109375-24.77856445 55.37109375-55.36713867 0-30.58461914-24.77460938-55.36713867-55.37109375-55.36713867z"  horiz-adv-x="1024" />

    
    <glyph glyph-name="gerensvg" unicode="&#40983;" d="M614.17439338 329.35339296999996c59.81556997 35.58490658 99.99919781 100.85456002 99.9991978 175.35844635 0 112.43873912-91.48236558 203.91650661-203.92110532 203.9165066-112.44333785 0-203.92110533-91.47776685-203.92110533-203.9165066 0-74.50848504 40.18362785-139.77813847 99.99919781-175.35844635C297.32248545 287.44064586 219.72825867 181.69764470999996 219.72825867 58.111604690000036h55.18465703c0 129.7713203 105.57284794 235.34876759 235.33957015 235.34876759s235.33957015-105.57744667 235.33957015-235.34876759h55.18465704c0 123.58604003-77.5942268 229.32904116-186.60231966 271.24178828zM361.51603821 504.71183932c0 82.00899933 66.72284962 148.73184893 148.73644764 148.73184893 82.01359805 0 148.73644764-66.72284962 148.73644766-148.73184893 0-82.01359805-66.72284962-148.74104636-148.73644765-148.74104638-82.01359805 0-148.73644764 66.72284962-148.73644765 148.74104638z"  horiz-adv-x="1024" />

    
    <glyph glyph-name="shipin1" unicode="&#40984;" d="M838.07234404 574.74116914l-197.55647441-63.04847069V564.56419903H186.11160469v-362.27807822h454.40426494V255.15302268000005l197.55647441-63.03927388V574.74116914zM585.33121196 257.47077786H241.29626237V509.37954134h344.03494958v-251.90876348z m197.55647504 10.17697075l-138.2513628 44.1201337V455.08243753l138.2513628 44.1201337v-231.55482261z"  horiz-adv-x="1024" />

    
    <glyph glyph-name="image-benz" unicode="&#133;" d="M268.8 583.6800000000001c-35.84 0-64-28.16-64-64s28.16-64 64-64 64 28.16 64 64c0 33.28-28.16 64-64 64zM1024 734.72v2.56c0 28.16-23.04 48.64-48.64 48.64h-921.6c-35.84 0-51.2-23.04-51.2-53.76V30.720000000000027c0-46.08 17.92-64 64-64H972.8c28.16 0 51.2 23.04 53.76 51.2v2.56L1024 734.72z m-898.56-714.24c-23.04 2.56-48.64 0-71.68 0V734.72H972.8V81.91999999999996l-102.4 102.4-230.4 245.76c-33.28 35.84-71.68 48.64-107.52 30.72-17.92-7.68-33.28-20.48-43.52-35.84l-330.24-391.68c-7.68-10.24-17.92-15.36-33.28-12.8z m89.6 0c5.12 5.12 7.68 10.24 12.8 15.36 99.84 117.76 199.68 238.08 302.08 355.84 28.16 33.28 46.08 33.28 76.8 2.56 112.64-120.32 222.72-238.08 335.36-358.4 0-5.12 5.12-7.68 10.24-15.36h-737.28z"  horiz-adv-x="1026" />

    
    <glyph glyph-name="video-benz" unicode="&#134;" d="M128 79.36000000000001h558.08c15.36 0 25.6 12.8 25.6 25.6 0 15.36-12.8 25.6-25.6 25.6H128c-15.36 0-25.6-12.8-25.6-25.6 0-15.36 10.24-25.6 25.6-25.6zM1024 670.72c0 10.24-7.68 20.48-15.36 23.04-10.24 5.12-20.48 2.56-28.16-5.12l-163.84-209.92V739.84c0 28.16-23.04 51.2-51.2 51.2H51.2c-28.16 0-51.2-23.04-51.2-51.2V25.600000000000023c0-28.16 23.04-51.2 51.2-51.2h711.68c28.16 0 51.2 23.04 51.2 51.2V325.12l161.28-207.36 2.56-2.56c5.12-5.12 12.8-7.68 17.92-7.68 2.56 0 7.68 0 10.24 2.56 10.24 5.12 15.36 12.8 15.36 23.04l2.56 537.6zM762.88 28.159999999999968H51.2V739.84h711.68v-711.68z m53.76 373.76l156.16 194.56V204.79999999999995l-156.16 197.12z"  horiz-adv-x="1024" />

    
    <glyph glyph-name="face-benz" unicode="&#135;" d="M509.44 102.39999999999998c-84.48 0-161.28 43.52-204.8 115.2-7.68 12.8-2.56 28.16 10.24 35.84 12.8 7.68 28.16 2.56 35.84-10.24 30.72-56.32 92.16-89.6 156.16-89.6 66.56 0 125.44 33.28 156.16 89.6 7.68 12.8 23.04 17.92 35.84 10.24 12.8-7.68 17.92-23.04 10.24-35.84-35.84-71.68-112.64-115.2-199.68-115.2zM343.04 501.76m-64 0a64 64 0 1 1 128 0 64 64 0 1 1-128 0ZM678.4 501.76m-64 0a64 64 0 1 1 128 0 64 64 0 1 1-128 0ZM512-128c-281.6 0-512 230.4-512 512s230.4 512 512 512 512-230.4 512-512-230.4-512-512-512z m0 972.8c-253.44 0-460.8-207.36-460.8-460.8s207.36-460.8 460.8-460.8 460.8 207.36 460.8 460.8-207.36 460.8-460.8 460.8z"  horiz-adv-x="1024" />

    
    <glyph glyph-name="zhuye" unicode="&#40992;" d="M790.09143067 121.35809302999996H233.90856933V353.10095191000005h61.79809547v-169.9447627h432.5866704V353.10095191000005h61.79809547zM831.80514526 252.67904686999998L512 572.48419213 192.19485474 254.22399901999995 148.93618798 297.48266578000005 512 659.00152564l363.06381202-363.06381202zM419.30285644 337.65142822999996h185.39428712v-61.79809547H419.30285644z"  horiz-adv-x="1024" />

    
    <glyph glyph-name="biaodan" unicode="&#40985;" d="M559.00313407 642.51723652h-94.00626814a23.50156673 23.50156673 0 0 1 0-47.00313406h94.00626814a23.50156673 23.50156673 0 0 1 0 47.00313407zM276.98433022 642.51723652h-47.00313409a23.50156673 23.50156673 0 0 1 0-47.00313406h47.0031341a23.50156673 23.50156673 0 0 1 0 47.00313407zM794.01880387 642.51723652h-47.00313409a23.50156673 23.50156673 0 0 1 0-47.00313406h47.00313408a23.50156673 23.50156673 0 0 1 1e-8 47.00313407zM794.01880387 642.51723652a23.50156673 23.50156673 0 0 1-23.50156734-23.50156674v-517.03447365a23.50156673 23.50156673 0 0 1 47.00313407 0v517.03447365a23.50156673 23.50156673 0 0 1-23.50156673 23.50156675zM229.98119613 642.51723652a23.50156673 23.50156673 0 0 1-23.50156673-23.50156674v-517.03447365a23.50156673 23.50156673 0 0 1 47.00313407 0v517.03447365A23.50156673 23.50156673 0 0 1 229.98119613 642.51723652zM794.01880387 125.48276348000002H229.98119613a23.50156673 23.50156673 0 0 1 1e-8-47.00313408h564.03760773a23.50156673 23.50156673 0 0 1 0 47.00313407zM700.0125357 454.50470082h-376.0250714a23.50156673 23.50156673 0 0 1-1e-8-47.00313409h376.02507141a23.50156673 23.50156673 0 0 1 1e-8 47.00313409zM700.0125357 360.49843326999996h-376.0250714a23.50156673 23.50156673 0 0 1-1e-8-47.00313409h376.02507141a23.50156673 23.50156673 0 0 1 1e-8 47.00313409zM700.0125357 360.49843326999996h-376.0250714a23.50156673 23.50156673 0 0 1-1e-8-47.00313409h376.02507141a23.50156673 23.50156673 0 0 1 1e-8 47.00313409zM700.0125357 266.49216509999997h-376.0250714a23.50156673 23.50156673 0 0 1-1e-8-47.00313407h376.02507141a23.50156673 23.50156673 0 0 1 1e-8 47.00313407zM700.0125357 266.49216509999997h-376.0250714a23.50156673 23.50156673 0 0 1-1e-8-47.00313407h376.02507141a23.50156673 23.50156673 0 0 1 1e-8 47.00313407zM653.00940163 689.5203706a23.50156673 23.50156673 0 0 1-23.50156673-23.50156673v-94.00626817a23.50156673 23.50156673 0 0 1 47.00313407 0v94.00626817a23.50156673 23.50156673 0 0 1-23.50156734 23.50156673zM370.99059837 689.5203706a23.50156673 23.50156673 0 0 1-23.50156734-23.50156673v-94.00626817a23.50156673 23.50156673 0 0 1 47.00313407 0v94.00626817a23.50156673 23.50156673 0 0 1-23.50156673 23.50156673z"  horiz-adv-x="1024" />

    
    <glyph glyph-name="sousuo" unicode="&#40993;" d="M640.90696526 305.56952619000003h-27.15736629l-9.63181256 9.26971437c33.67513418 39.17902708 53.95263433 90.01761675 53.95263434 145.41864393 0 123.40307236-100.01152754 223.4145999-223.4145999 223.41459991S211.24122095 583.6609568599999 211.24122095 460.2578845s100.01152754-223.4145999 223.4145999-223.41459989c55.32860756 0 106.16719722 20.27750015 145.41864395 53.95263433l9.26971435-9.63181257v-27.15736628l171.8518138-171.48971557 51.20068788 51.20068788L640.90696526 305.56952619000003z m-206.25114441 1e-8c-85.6000185 0-154.68835831 69.0883398-154.68835831 154.68835829S349.05580234 614.9462428100001 434.65582085 614.9462428100001s154.68835831-69.0883398 154.6883583-154.68835832-69.0883398-154.68835831-154.6883583-154.68835829z"  horiz-adv-x="1024" />

    
    <glyph glyph-name="Shapecopy" unicode="&#40994;" d="M712.77276637 97.58898165999994H254.2333653a28.65871274 28.65871274 0 0 0-28.65871275 28.65871274v458.53940163a28.65871274 28.65871274 0 0 0 28.65871275 28.65871275h257.928413v-57.31742551H282.89207749v-401.22197613h401.22197669v229.26970082h57.31742495v-257.92841356a28.65871274 28.65871274 0 0 0-28.65871276-28.65871275zM491.90006879 363.91439789000003a28.65871274 28.65871274 0 0 0 0 40.52341957l257.92841301 257.92841356a28.65871274 28.65871274 0 0 0 40.52341955-40.52341957l-257.92841299-257.92841355a28.65871274 28.65871274 0 0 0-40.52341956-1e-8z"  horiz-adv-x="1024" />

    
    <glyph glyph-name="ICONbiaozhun_fuzhi-" unicode="&#40995;" d="M437.84228516 433.43847655H240.08837891a24.71923828 24.71923828 0 0 0-24.71923829 24.71923829V655.91162109a24.71923828 24.71923828 0 0 0 24.71923829 24.71923829h197.75390625a24.71923828 24.71923828 0 0 0 24.71923829-24.71923829v-197.75390625a24.71923828 24.71923828 0 0 0-24.71923829-24.71923829z m-173.03466797 49.43847658h148.31542968V631.19238281H264.80761719zM783.91162109 433.43847655h-197.75390625a24.71923828 24.71923828 0 0 0-24.71923829 24.71923829V655.91162109a24.71923828 24.71923828 0 0 0 24.71923829 24.71923829h197.75390625a24.71923828 24.71923828 0 0 0 24.71923829-24.71923829v-197.75390625a24.71923828 24.71923828 0 0 0-24.71923829-24.71923829z m-173.03466796 49.43847658h148.31542968V631.19238281h-148.31542968zM437.84228516 87.36914062000005H240.08837891a24.71923828 24.71923828 0 0 0-24.71923829 24.71923829v197.75390625a24.71923828 24.71923828 0 0 0 24.71923829 24.71923829h197.75390625a24.71923828 24.71923828 0 0 0 24.71923829-24.71923829v-197.75390625a24.71923828 24.71923828 0 0 0-24.71923829-24.71923828z m-173.03466797 49.43847657h148.31542968v148.31542968H264.80761719zM783.91162109 87.36914062000005h-148.31542968a24.71923828 24.71923828 0 0 0 0 49.43847657h123.5961914v68.22509765a24.71923828 24.71923828 0 1 0 49.43847657 0V112.08837890999996a24.71923828 24.71923828 0 0 0-24.71923829-24.71923829zM736.45068359 285.12304687000005H561.43847655a24.71923828 24.71923828 0 0 0 0 49.43847656h175.01220704a24.71923828 24.71923828 0 0 0 0-49.43847655zM709.75390625 193.66186523h-74.15771484a24.71923828 24.71923828 0 0 0 0 49.43847657h74.15771484a24.71923828 24.71923828 0 0 0 0-49.43847657zM561.43847655 87.36914062000005a24.71923828 24.71923828 0 0 0-24.71923827 24.71923829v49.43847656a24.71923828 24.71923828 0 0 0 49.43847656 0v-49.43847656a24.71923828 24.71923828 0 0 0-24.71923829-24.71923828z"  horiz-adv-x="1024" />

    
    <glyph glyph-name="try" unicode="&#40961;" d="M781.08444445 678.68444445v-1.13777778l-538.1688889-0.11377778v1.13777778h-43.23555555l0.11377778-480.14222222h1.13777777v-1.13777778l334.05155556 0.11377778-0.56888889-108.0888889h28.33066667v0.22755556l108.99911111 105.58577778h152.576v1.13777778l-0.11377778 438.04444444v44.37333334h-43.12177777z m0.11377777-440.32h-136.53333333v-1.25155556l-74.97955556-86.016 10.01244445 89.54311111-44.37333333 0.22755555v-0.22755555l-292.29511112-0.22755555-0.11377778 393.6711111 538.1688889 0.11377778 0.11377777-395.83288888zM725.33333333 349.75288889h-307.2v31.85777778h-43.23555555v-31.85777778h-76.23111111v-43.23555556h76.23111111v-34.13333333h43.23555555v34.13333333h307.2zM429.51111111 568.20622222l1.13777778-151.32444444 162.70222222 64.85333333 1.13777778 25.03111111-164.97777778 61.44z m91.81866667-77.824l-50.176-20.02488889-0.34133333 46.64888889 50.85866666-18.88711111-0.34133333-7.73688889z"  horiz-adv-x="1024" />

    
    <glyph glyph-name="intro" unicode="&#40962;" d="M748.08888889 125.15555555000003v447.14666667h-1.13777778l1.13777778 1.13777778-1.13777778 1.024v0.11377778h-0.11377778l-121.62844444 113.77777777-1.13777778-1.13777777v1.13777777h-348.16v-608.7111111h472.17777778v45.5111111z m-75.54844444 449.42222223h-49.60711112v49.60711111l49.60711112-49.60711111z m-352.256 69.40444444h269.65333333v-116.05333333h112.64v-402.77333334h-382.29333333v518.82666667zM567.18222222 293.54666667000004h101.26222223v-45.51111112h-101.26222223v45.51111112zM510.29333333 215.03999999999996h158.15111112v-45.51111111h-158.15111112v45.51111111z"  horiz-adv-x="1024" />

    
    <glyph glyph-name="guide" unicode="&#40963;" d="M731.52071111 608.40011852c-59.9533037 59.9533037-139.68877037 92.96402963-224.40011852 92.96402963-84.71134815 0-164.44681482-33.01072592-224.40011851-92.96402963C222.76717036 548.44681482 189.75644444 468.71134815 189.75644444 384c0-84.71134815 33.01072592-164.44681482 92.96402964-224.40011852 59.9533037-59.9533037 139.68877037-92.96402963 224.40011851-92.96402963 84.71134815 0 164.44681482 33.01072592 224.40011852 92.96402963C791.47401481 219.55318518 824.48474075 299.28865184999995 824.48474075 384c0 84.71134815-33.01072592 164.44681482-92.96402964 224.40011852z m-34.34571853-414.45451852c-50.72971852-50.72971852-118.32888889-78.76456297-190.05439999-78.76456297s-139.32468148 27.91348148-190.0544 78.76456297C266.21511111 244.67531852000002 238.30162963 312.15312592 238.30162963 384s27.91348148 139.32468148 78.76456296 190.0544c50.72971852 50.72971852 118.32888889 78.76456297 190.0544 78.76456297s139.32468148-27.91348148 190.05439999-78.76456297C748.02607407 523.32468148 775.93955555 455.84687408 775.93955555 384s-27.91348148-139.32468148-78.76456297-190.0544zM341.09605925 224.04361482000002L572.65659259 331.81392592l98.66808889 224.76420741-224.7642074-100.85262222-105.46441483-231.68189629z m177.91810372 138.23241481l-70.26915556-32.768 28.1562074 73.42459259 42.11294816-40.65659259z"  horiz-adv-x="1024" />

    
    <glyph glyph-name="status-1" unicode="&#113;" d="M272 528h480v-96H272zM272 336h480v-96H272z"  horiz-adv-x="1024" />

    
    <glyph glyph-name="status-3" unicode="&#114;" d="M752 336v96H560V624h-96v-288h96z"  horiz-adv-x="1024" />

    
    <glyph glyph-name="status-2" unicode="&#112;" d="M272 432h480v-96H272z"  horiz-adv-x="1024" />

    
    <glyph glyph-name="redbag-big" unicode="&#132;" d="M872 848h-720v-928h718.4V848z m-32-32v-129.6c-73.6-30.4-158.4-51.2-248-59.2-22.4 16-49.6 25.6-80 25.6s-57.6-9.6-80-25.6c-89.6 8-174.4 27.2-248 59.2V816h656zM441.6 595.2l4.8 3.2c38.4 30.4 91.2 30.4 129.6 0l4.8-3.2c20.8-19.2 33.6-46.4 33.6-76.8 0-57.6-46.4-104-104-104s-104 46.4-104 104c1.6 30.4 16 57.6 35.2 76.8zM184-48V651.2c65.6-25.6 140.8-44.8 217.6-52.8-16-22.4-25.6-49.6-25.6-80 0-75.2 60.8-136 136-136s136 60.8 136 136c0 30.4-9.6 57.6-25.6 80 78.4 8 152 27.2 217.6 52.8V-48h-656z"  horiz-adv-x="1024" />

    
    <glyph glyph-name="accept-video" unicode="&#97;" d="M896 694.5c-13.5 6-28.5 4.5-39-4.5L611 490.5V646.5H92v-525h519V277.5L857 78c7.5-6 15-9 24-9 6 0 10.5 1.5 16.5 3 13.5 6 21 19.5 21 33v555c-1.5 16.5-9 28.5-22.5 34.5z m-345-513H152v405h399v-405zM857 154.5L576.5 384 857 613.5v-459z"  horiz-adv-x="1024" />

    
    <glyph glyph-name="end-video" unicode="&#98;" d="M480 704h64v-342.4h-64zM635.2 672l-24-59.2c97.6-40 161.6-134.4 161.6-240C771.2 228.79999999999995 656 112 512 112s-259.2 116.8-259.2 259.2c0 105.6 64 200 161.6 240L388.8 672c-121.6-49.6-201.6-168-201.6-299.2C188.8 193.60000000000002 332.8 48 512 48s323.2 145.6 323.2 323.2c0 132.8-78.4 249.6-200 300.8z"  horiz-adv-x="1024" />

    
    <glyph glyph-name="wallet" unicode="&#128;" d="M740.8 659.2H278.4c-24 0-44.8-19.2-44.8-44.8v-332.8c0-17.6 9.6-33.6 24-41.6l332.8-190.4c8-4.8 16-6.4 24-6.4 6.4 0 12.8 1.6 19.2 4.8 14.4 8 20.8 24 20.8 44.8v139.2h88c24 0 44.8 19.2 44.8 44.8V616c-1.6 24-22.4 43.2-46.4 43.2z m-126.4-566.4c0-4.8 0-8-1.6-9.6 0 0-1.6 0-1.6 1.6l-332.8 192c-3.2 1.6-4.8 4.8-4.8 8V544l316.8-182.4c11.2-6.4 24-27.2 24-46.4v-222.4zM740.8 272h-88v43.2c0 32-19.2 67.2-43.2 81.6l-336 193.6v25.6c0 1.6 1.6 4.8 4.8 4.8h462.4c1.6 0 4.8-1.6 4.8-4.8v-35.2H448v-40h297.6v-265.6c0-1.6-1.6-3.2-4.8-3.2z"  horiz-adv-x="1024" />

    
    <glyph glyph-name="note" unicode="&#49;" d="M734.4 689.6H289.6c-27.2 0-51.2-22.4-51.2-51.2V128c0-27.2 22.4-51.2 51.2-51.2h369.6l126.4 121.6V640c0 27.2-22.4 49.6-51.2 49.6zM278.4 128V640c0 6.4 4.8 11.2 11.2 11.2H736c6.4 0 11.2-4.8 11.2-11.2v-395.2h-113.6v-126.4H289.6c-6.4 0-11.2 4.8-11.2 9.6z m454.4 76.8l-62.4-59.2v59.2h62.4z"  horiz-adv-x="1024" />

    
    <glyph glyph-name="face" unicode="&#68;" d="M513.6 707.2c-179.2 0-323.2-145.6-323.2-323.2S336 60.799999999999955 513.6 60.799999999999955s323.2 144 323.2 323.2-145.6 323.2-323.2 323.2z m0-608c-156.8 0-284.8 128-284.8 284.8s128 284.8 284.8 284.8 284.8-128 284.8-284.8-128-284.8-284.8-284.8zM377.6 496m-32 0a32 32 0 1 1 64 0 32 32 0 1 1-64 0ZM649.6 496m-32 0a32 32 0 1 1 64 0 32 32 0 1 1-64 0ZM635.2 262.4c-67.2-67.2-176-67.2-243.2 0-8 8-20.8 8-28.8 0s-8-20.8 0-28.8c41.6-41.6 96-62.4 150.4-62.4s108.8 20.8 150.4 62.4c8 8 8 20.8 0 28.8s-20.8 8-28.8 0z"  horiz-adv-x="1024" />

    
    <glyph glyph-name="video" unicode="&#116;" d="M806.4 619.2c-9.6 4.8-19.2 3.2-27.2-3.2l-192-156.8V528c0 30.4-24 54.4-54.4 54.4H251.2c-30.4 0-54.4-24-54.4-54.4v-288c0-30.4 24-54.4 54.4-54.4h283.2c30.4 0 54.4 24 54.4 54.4v68.8l192-156.8c4.8-3.2 9.6-6.4 16-6.4 3.2 0 8 1.6 11.2 3.2 9.6 4.8 14.4 12.8 14.4 22.4V595.2c-1.6 9.6-6.4 19.2-16 24zM547.2 240c0-8-6.4-14.4-14.4-14.4H251.2c-8 0-14.4 6.4-14.4 14.4V528c0 8 6.4 14.4 14.4 14.4h283.2c8 0 14.4-6.4 14.4-14.4v-288z m233.6-36.8L560 384l222.4 180.8v-361.6z"  horiz-adv-x="1024" />

    
    <glyph glyph-name="change" unicode="&#100;" d="M529.6 75.20000000000005h121.6c8 0 16 4.8 19.2 12.8 3.2 8 1.6 16-4.8 22.4L550.4 224l-28.8-28.8 80-80H528c-147.2 0-268.8 120-268.8 268.8 0 72 27.2 139.2 78.4 188.8l-28.8 28.8c-57.6-57.6-89.6-136-89.6-217.6 1.6-169.6 140.8-308.8 310.4-308.8zM529.6 691.2h-105.6c-8 0-16-4.8-19.2-12.8-3.2-8-1.6-16 4.8-22.4l113.6-113.6 28.8 28.8-80 80h57.6c147.2 0 268.8-120 268.8-268.8 0-72-27.2-139.2-78.4-188.8l28.8-28.8c57.6 57.6 89.6 136 89.6 217.6-1.6 171.2-139.2 308.8-308.8 308.8z"  horiz-adv-x="1024" />

    
    <glyph glyph-name="camera" unicode="&#99;" d="M516.8 705.6c-150.4 0-272-121.6-272-272 0-108.8 64-201.6 156.8-246.4l-41.6-73.6c-6.4-11.2-6.4-24 0-35.2 6.4-11.2 17.6-17.6 30.4-17.6h252.8c12.8 0 24 6.4 30.4 17.6 6.4 11.2 6.4 24 0 35.2l-41.6 73.6c92.8 43.2 156.8 137.6 156.8 246.4 0 150.4-121.6 272-272 272z m118.4-603.2H400l40 70.4c24-8 51.2-11.2 78.4-11.2s52.8 4.8 78.4 11.2l38.4-70.4z m-118.4 99.2c-128 0-232 104-232 232s104 232 232 232 232-104 232-232-104-232-232-232zM516.8 433.6m-86.4 0a86.4 86.4 0 1 1 172.8 0 86.4 86.4 0 1 1-172.8 0Z"  horiz-adv-x="1024" />

    
    <glyph glyph-name="vote" unicode="&#104;" d="M425.6 220.79999999999995c-76.8 43.2-168 24-172.8 22.4l9.6-38.4s81.6 17.6 144-17.6c62.4-35.2 88-113.6 88-115.2v-9.6h40v8s25.6 78.4 88 115.2c62.4 35.2 142.4 19.2 144 17.6l4.8 19.2 4.8 19.2c-3.2 1.6-96 20.8-172.8-22.4-28.8-17.6-51.2-41.6-68.8-64V272c112 9.6 201.6 105.6 201.6 220.8V673.6c0 8-3.2 14.4-9.6 17.6-6.4 3.2-14.4 3.2-20.8 0l-192-121.6-192 121.6c-6.4 3.2-14.4 4.8-20.8 0-6.4-3.2-9.6-9.6-9.6-17.6v-179.2c0-115.2 89.6-211.2 203.2-222.4v-115.2c-17.6 24-40 48-68.8 64z m-94.4 272v144L502.4 528c6.4-4.8 14.4-4.8 20.8 0l171.2 108.8v-144c0-100.8-81.6-182.4-182.4-182.4-99.2 0-180.8 81.6-180.8 182.4z"  horiz-adv-x="1024" />

    
    <glyph glyph-name="star" unicode="&#72;" d="M512 233.60000000000002L313.6 96 384 326.4l-192 145.6 241.6 4.8L512 704l78.4-227.2 241.6-4.8-192-145.6L710.4 96z"  horiz-adv-x="1024" />

    
    <glyph glyph-name="download" unicode="&#117;" d="M278.4 67.20000000000005h470.4c22.4 0 41.6 19.2 41.6 41.6 0 11.2-9.6 19.2-20.8 19.2-11.2 0-20.8-9.6-20.8-20.8l-470.4 1.6c0 11.2-9.6 19.2-19.2 19.2s-19.2-9.6-19.2-19.2c-3.2-22.4 16-41.6 38.4-41.6zM499.2 193.60000000000002c3.2-3.2 9.6-6.4 14.4-6.4s9.6 1.6 14.4 6.4l224 224c8 8 8 20.8 0 28.8s-20.8 8-28.8 0L532.8 256V680c0 11.2-9.6 19.2-19.2 19.2s-19.2-9.6-19.2-19.2V256L304 444.8c-8 8-20.8 8-28.8 0s-8-20.8 0-28.8l224-222.4z"  horiz-adv-x="1024" />

    
    <glyph glyph-name="transfer" unicode="&#119;" d="M585.6 310.4v-3.2l-17.6-17.6 17.6-17.6v-3.2h3.2l78.4-78.4 28.8 28.8-49.6 49.6H736c51.2 0 92.8-41.6 92.8-92.8 0-51.2-41.6-92.8-92.8-92.8h-102.4v-40H736c73.6 0 132.8 59.2 132.8 132.8 0 73.6-59.2 132.8-132.8 132.8h-89.6l49.6 49.6-28.8 28.8-78.4-78.4h-3.2zM512 403.2c70.4 0 126.4 67.2 126.4 148.8s-56 148.8-126.4 148.8-126.4-67.2-126.4-148.8 57.6-148.8 126.4-148.8z m0 259.2c48 0 86.4-49.6 86.4-108.8S560 443.2 512 443.2s-86.4 49.6-86.4 108.8 38.4 110.4 86.4 110.4zM273.6 105.60000000000002h236.8c11.2 0 19.2 9.6 19.2 19.2s-9.6 19.2-19.2 19.2H273.6c-4.8 0-9.6 1.6-12.8 6.4-1.6 1.6-4.8 6.4-3.2 12.8 24 80 126.4 132.8 254.4 132.8 11.2 0 19.2 9.6 19.2 19.2s-9.6 19.2-19.2 19.2c-148.8 0-262.4-64-292.8-161.6-4.8-16-1.6-33.6 8-48 11.2-11.2 28.8-19.2 46.4-19.2z"  horiz-adv-x="1024" />

    
    <glyph glyph-name="audio" unicode="&#103;" d="M329.6 257.6h161.6l187.2-180.8 1.6-1.6c4.8-4.8 11.2-6.4 17.6-6.4 4.8 0 8 1.6 11.2 3.2 9.6 4.8 16 14.4 16 25.6V670.4c0 11.2-6.4 20.8-16 25.6-9.6 4.8-20.8 3.2-28.8-3.2 0 0-1.6 0-1.6-1.6L491.2 510.4H329.6c-11.2 0-19.2-9.6-19.2-19.2v-212.8c-1.6-12.8 8-20.8 19.2-20.8z m19.2 212.8h142.4c6.4-3.2 14.4-1.6 20.8 4.8l172.8 166.4v-515.2L512 292.79999999999995c-3.2 3.2-8 4.8-12.8 4.8h-150.4V470.4z"  horiz-adv-x="1024" />

    
    <glyph glyph-name="image" unicode="&#76;" d="M611.2 404.8c43.2 0 78.4 35.2 78.4 78.4S654.4 560 611.2 560s-78.4-35.2-78.4-78.4 36.8-76.8 78.4-76.8z m0 115.2c20.8 0 38.4-17.6 38.4-38.4s-17.6-38.4-38.4-38.4-38.4 17.6-38.4 38.4 17.6 38.4 38.4 38.4zM820.8 134.39999999999998V633.6c0 32-27.2 59.2-59.2 59.2H264c-32 0-59.2-27.2-59.2-59.2v-497.6c0-32 27.2-59.2 59.2-59.2h497.6c33.6-1.6 59.2 25.6 59.2 57.6zM264 651.2h497.6c11.2 0 19.2-8 19.2-19.2v-497.6c0-11.2-8-19.2-19.2-19.2h-1.6L419.2 456 244.8 281.6v352c0 9.6 9.6 17.6 19.2 17.6z m-19.2-516.8V224l174.4 176L704 115.20000000000005H264c-9.6 0-19.2 9.6-19.2 19.2z"  horiz-adv-x="1024" />

    
    <glyph glyph-name="file" unicode="&#118;" d="M467.2 59.200000000000045c76.8 0 140.8 60.8 142.4 137.6V486.4c0 54.4-44.8 97.6-97.6 97.6s-97.6-44.8-97.6-97.6v-289.6h40V488c0 32 25.6 57.6 57.6 57.6s57.6-25.6 57.6-57.6v-284.8c0-56-46.4-102.4-102.4-102.4-56 0-102.4 46.4-102.4 102.4V504c0 81.6 67.2 148.8 148.8 148.8 81.6 0 148.8-67.2 148.8-148.8v-302.4h40V504c0 104-84.8 188.8-188.8 188.8-104 0-188.8-84.8-188.8-188.8v-300.8c0-80 64-144 142.4-144z"  horiz-adv-x="1024" />

    
    <glyph glyph-name="exit" unicode="&#146;" d="M283.2 83.20000000000005h172.8v40H283.2c-12.8 0-22.4 9.6-22.4 22.4V622.4c0 12.8 9.6 22.4 22.4 22.4h172.8v40H283.2c-33.6 0-62.4-27.2-62.4-62.4V144c0-33.6 28.8-60.8 62.4-60.8zM398.4 400v-40h371.2l-155.2-155.2 28.8-28.8 201.6 203.2-201.6 203.2-28.8-28.8 155.2-153.6z"  horiz-adv-x="1024" />

    
    <glyph glyph-name="agent" unicode="&#121;" d="M248 144c0-33.6 27.2-60.8 60.8-60.8h4.8c33.6 0 60.8 27.2 60.8 60.8v156.8c0 33.6-27.2 60.8-60.8 60.8h-4.8c-24 0-44.8-14.4-54.4-35.2-22.4 89.6 1.6 187.2 70.4 254.4 104 104 275.2 104 379.2 0 68.8-68.8 92.8-164.8 70.4-254.4-9.6 20.8-30.4 35.2-54.4 35.2h-4.8c-33.6 0-60.8-27.2-60.8-60.8V144c0-33.6 27.2-60.8 60.8-60.8h4.8c33.6 0 60.8 27.2 60.8 60.8v92.8c70.4 121.6 51.2 273.6-48 372.8-57.6 57.6-136 89.6-217.6 89.6s-160-32-217.6-89.6c-99.2-99.2-118.4-251.2-48-372.8V144z m491.2 0c0-11.2-9.6-19.2-19.2-19.2h-4.8c-11.2 0-19.2 9.6-19.2 19.2v156.8c0 11.2 9.6 19.2 19.2 19.2h4.8c11.2 0 19.2-9.6 19.2-19.2V144zM288 300.79999999999995c0 11.2 9.6 19.2 19.2 19.2h4.8c11.2 0 19.2-9.6 19.2-19.2V144c0-11.2-9.6-19.2-19.2-19.2h-4.8c-11.2 0-19.2 9.6-19.2 19.2v156.8z"  horiz-adv-x="1024" />

    
    <glyph glyph-name="menu" unicode="&#122;" d="M360 368h425.6c9.6 0 16 6.4 16 16s-6.4 16-16 16H360c-9.6 0-16-6.4-16-16s8-16 16-16zM360 144h425.6c9.6 0 16 6.4 16 16s-6.4 16-16 16H360c-9.6 0-16-6.4-16-16s8-16 16-16zM360 592h425.6c9.6 0 16 6.4 16 16s-6.4 16-16 16H360c-9.6 0-16-6.4-16-16s8-16 16-16zM249.6 368h16c9.6 0 16 6.4 16 16s-6.4 16-16 16h-16c-9.6 0-16-6.4-16-16s6.4-16 16-16zM249.6 144h16c9.6 0 16 6.4 16 16s-6.4 16-16 16h-16c-9.6 0-16-6.4-16-16s6.4-16 16-16zM249.6 592h16c9.6 0 16 6.4 16 16s-6.4 16-16 16h-16c-9.6 0-16-6.4-16-16s6.4-16 16-16z"  horiz-adv-x="1024" />

    
    <glyph glyph-name="call" unicode="&#945;" d="M712 96c46.4 27.2 35.2 70.4 8 116.8s-59.2 78.4-105.6 52.8c-9.6-4.8-44.8-27.2-51.2-35.2-30.4 32-62.4 70.4-88 115.2s-43.2 91.2-54.4 132.8c9.6 1.6 48 22.4 56 27.2 46.4 27.2 35.2 70.4 8 116.8s-59.2 78.4-105.6 52.8c-28.8-16-139.2-118.4 11.2-379.2C540.8 33.60000000000002 684.8 80 712 96z"  horiz-adv-x="1024" />

    
    <glyph glyph-name="redbag" unicode="&#129;" d="M305.6 75.20000000000005h424c24 0 43.2 19.2 43.2 43.2v528c0 24-19.2 43.2-43.2 43.2H305.6c-24 0-43.2-19.2-43.2-43.2v-526.4c-1.6-24 19.2-44.8 43.2-44.8z m424 40H305.6c-1.6 0-3.2 1.6-3.2 3.2V540.8c40-14.4 88-22.4 129.6-28.8-6.4-12.8-9.6-27.2-9.6-43.2 0-52.8 43.2-96 96-96s96 43.2 96 96c0 16-3.2 30.4-9.6 43.2 41.6 4.8 89.6 14.4 129.6 28.8v-420.8c-1.6-1.6-3.2-4.8-4.8-4.8zM478.4 510.4l3.2 3.2c20.8 16 49.6 16 70.4 0l3.2-3.2c11.2-9.6 17.6-25.6 17.6-41.6 0-30.4-25.6-56-56-56s-56 25.6-56 56c0 16 6.4 30.4 17.6 41.6z m-172.8 139.2h424c1.6 0 3.2-1.6 3.2-3.2v-62.4c-41.6-16-102.4-28.8-161.6-33.6-16 11.2-33.6 16-54.4 16s-38.4-6.4-54.4-16c-60.8 4.8-120 17.6-161.6 33.6v62.4c0 1.6 1.6 3.2 4.8 3.2z"  horiz-adv-x="1024" />

    
    <glyph glyph-name="over" unicode="&#946;" d="M268.8 254.39999999999998c54.4 0 97.6 11.2 97.6 65.6 0 11.2-1.6 52.8-4.8 62.4 43.2 9.6 91.2 19.2 142.4 19.2s100.8-9.6 142.4-19.2c-3.2-9.6-4.8-52.8-4.8-62.4 0-54.4 43.2-65.6 97.6-65.6s97.6 11.2 97.6 65.6c0 32-32 179.2-334.4 179.2-299.2 0-331.2-147.2-331.2-179.2 0-54.4 43.2-65.6 97.6-65.6z"  horiz-adv-x="1024" />

    
    <glyph glyph-name="sound" unicode="&#120;" d="M678.4 644.8c-9.6 4.8-20.8 3.2-28.8-3.2 0 0-1.6 0-1.6-1.6l-153.6-148.8h-132.8c-11.2 0-19.2-9.6-19.2-19.2v-177.6c0-11.2 9.6-19.2 19.2-19.2h132.8l153.6-148.8s1.6 0 1.6-1.6c4.8-3.2 11.2-6.4 16-6.4 3.2 0 8 1.6 11.2 3.2 9.6 4.8 14.4 14.4 14.4 24V622.4c1.6 9.6-3.2 19.2-12.8 22.4z m-25.6-467.2l-137.6 132.8c-3.2 3.2-8 4.8-12.8 4.8h-120v137.6H496c6.4-1.6 14.4 0 20.8 4.8l137.6 132.8v-412.8z"  horiz-adv-x="1024" />

    
    <glyph glyph-name="h5-page" unicode="&#41072;" d="M276.8 80h481.6c24 0 43.2 19.2 43.2 43.2V644.8c0 24-19.2 43.2-43.2 43.2H276.8c-24 0-43.2-19.2-43.2-43.2v-520c0-25.6 19.2-44.8 43.2-44.8z m-11.2 564.8c0 6.4 4.8 11.2 11.2 11.2h481.6c6.4 0 11.2-4.8 11.2-11.2v-520c0-6.4-4.8-11.2-11.2-11.2H276.8c-6.4 0-11.2 4.8-11.2 11.2V644.8zM428.8 400h257.6v-32H428.8zM428.8 236.79999999999995h257.6v-32H428.8zM428.8 563.2h257.6v-32H428.8zM326.4 400H368v-32h-41.6zM326.4 236.79999999999995H368v-32h-41.6zM326.4 563.2H368v-32h-41.6z"  horiz-adv-x="1024" />

    
    <glyph glyph-name="mute" unicode="&#88;" d="M652.8 177.60000000000002l-137.6 132.8c-4.8 4.8-11.2 6.4-17.6 4.8h-115.2v137.6H496c6.4-1.6 14.4 0 20.8 4.8l137.6 132.8v-80h40v112c0 9.6-6.4 19.2-14.4 24-9.6 4.8-20.8 3.2-28.8-3.2 0 0-1.6 0-1.6-1.6L496 492.8h-132.8c-11.2 0-19.2-9.6-19.2-19.2v-177.6c0-11.2 9.6-19.2 19.2-19.2H496l153.6-148.8s1.6 0 1.6-1.6c4.8-3.2 11.2-6.4 16-6.4 3.2 0 8 1.6 11.2 3.2 9.6 4.8 14.4 14.4 14.4 24v107.2h-40v-76.8zM803.2 478.4l-65.6-65.6-65.6 65.6-28.8-28.8 65.6-65.6-65.6-65.6 28.8-28.8 65.6 65.6 65.6-65.6 28.8 28.8-67.2 65.6 67.2 65.6z"  horiz-adv-x="1024" />

    
    <glyph glyph-name="plus" unicode="&#102;" d="M532.8 144V363.20000000000005h220.8v40H532.8V624h-40v-220.8H273.6v-40h219.2V144z"  horiz-adv-x="1024" />

    
    <glyph glyph-name="right" unicode="&#71;" d="M476.8 270.4c-25.6 27.2-73.6 78.4-116.8 115.2l-25.6-30.4c59.2-49.6 129.6-129.6 131.2-131.2 3.2-4.8 9.6-6.4 14.4-6.4h1.6c6.4 0 12.8 4.8 16 9.6 1.6 1.6 89.6 148.8 305.6 305.6l-24 32C604.8 440 510.4 320 476.8 270.4z"  horiz-adv-x="1024" />

    
    <glyph glyph-name="next" unicode="&#105;" d="M414.4 147.20000000000005L651.2 384 414.4 620.8 385.6 592l208-208-208-208z"  horiz-adv-x="1024" />

    
    <glyph glyph-name="up-keyboard" unicode="&#78;" d="M456 219.20000000000005h113.6v-62.4h-113.6zM257.6 219.20000000000005h113.6v-62.4h-113.6zM656 219.20000000000005h113.6v-62.4H656zM456 393.6h113.6v-62.4h-113.6zM257.6 393.6h113.6v-62.4h-113.6zM656 393.6h113.6v-62.4H656zM609.6 505.6v35.2l-96 102.4-96-102.4v-35.2h152z"  horiz-adv-x="1024" />

    
    <glyph glyph-name="less" unicode="&#101;" d="M281.6 403.2h464v-40h-464z"  horiz-adv-x="1024" />

    
    <glyph glyph-name="down-keyboard" unicode="&#79;" d="M456 611.2h113.6v-62.4h-113.6zM656 611.2h113.6v-62.4H656zM257.6 611.2h113.6v-62.4h-113.6zM456 436.8h113.6v-62.4h-113.6zM656 436.8h113.6v-62.4H656zM257.6 436.8h113.6v-62.4h-113.6zM569.6 262.4h-152v-35.2l96-102.4 96 102.4v35.2H608z"  horiz-adv-x="1024" />

    
    <glyph glyph-name="zoomin" unicode="&#951;" d="M582.4 611.2h-40v-193.6H736v40h-126.4L777.6 624l-28.8 28.8-166.4-168zM273.6 120l169.6 171.2v-126.4h40V358.4H289.6v-40H416L244.8 148.79999999999995z"  horiz-adv-x="1024" />

    
    <glyph glyph-name="share" unicode="&#947;" d="M836.8 204.79999999999995V576c0 27.2-22.4 49.6-49.6 49.6H249.6c-27.2 0-49.6-22.4-49.6-49.6v-371.2c0-27.2 22.4-49.6 49.6-49.6h120v40h-120c-4.8 0-9.6 4.8-9.6 9.6V576c0 4.8 4.8 9.6 9.6 9.6h536c4.8 0 9.6-4.8 9.6-9.6v-371.2c0-4.8-4.8-9.6-9.6-9.6H656v-40h131.2c27.2-1.6 49.6 22.4 49.6 49.6zM369.6 73.60000000000002h297.6l-148.8 211.2z"  horiz-adv-x="1024" />

    
    <glyph glyph-name="zoomout" unicode="&#948;" d="M769.6 449.6V643.2H574.4v-40h126.4L534.4 436.8l27.2-27.2L729.6 576v-126.4zM464 368L292.8 196.79999999999995v124.8h-40V128h193.6v40h-124.8l171.2 171.2z"  horiz-adv-x="1024" />

    
    <glyph glyph-name="mix" unicode="&#950;" d="M715.2 608h-89.6v-40h89.6c17.6 0 32-14.4 32-32v-371.2c0-17.6-14.4-32-32-32H344c-17.6 0-32 14.4-32 32v89.6H272v-89.6c0-40 32-72 72-72h371.2c40 0 72 32 72 72V536c0 40-32 72-72 72zM291.2 451.2v-40h200V609.6h-40v-131.2L276.8 652.8l-28.8-27.2 174.4-174.4z"  horiz-adv-x="1024" />

    
    <glyph glyph-name="camera-off" unicode="&#953;" d="M788.8 433.6c0 150.4-121.6 272-272 272s-272-121.6-272-272c0-108.8 64-201.6 156.8-246.4l-41.6-73.6c-6.4-11.2-6.4-24 0-35.2 6.4-11.2 17.6-17.6 30.4-17.6h252.8c12.8 0 24 6.4 30.4 17.6 6.4 11.2 6.4 24 0 35.2l-41.6 73.6c92.8 43.2 156.8 137.6 156.8 246.4z m-153.6-331.2H400l40 70.4c24-8 51.2-11.2 78.4-11.2 27.2 0 52.8 4.8 78.4 11.2l38.4-70.4z m-118.4 99.2c-128 0-232 104-232 232s104 232 232 232 232-104 232-232-104-232-232-232zM516.8 555.2c-67.2 0-123.2-54.4-123.2-123.2s54.4-123.2 123.2-123.2c67.2 0 123.2 54.4 123.2 123.2s-56 123.2-123.2 123.2z m83.2-121.6c0-17.6-4.8-32-14.4-46.4l-115.2 115.2c12.8 8 28.8 14.4 46.4 14.4 46.4-1.6 83.2-38.4 83.2-83.2z m-164.8 0c0 14.4 3.2 27.2 9.6 38.4l112-112c-11.2-6.4-24-9.6-38.4-9.6-46.4 0-83.2 36.8-83.2 83.2z"  horiz-adv-x="1024" />

    
    <glyph glyph-name="mic" unicode="&#949;" d="M516.8 267.20000000000005c62.4 0 113.6 51.2 113.6 113.6V593.6c0 62.4-51.2 113.6-113.6 113.6h-8c-62.4 0-113.6-51.2-113.6-113.6v-212.8c0-62.4 51.2-113.6 113.6-113.6h8z m-81.6 113.6V593.6c0 40 33.6 73.6 73.6 73.6h8c40 0 73.6-33.6 73.6-73.6v-212.8c0-40-33.6-73.6-73.6-73.6h-8c-40 0-73.6 33.6-73.6 73.6zM513.6 43.200000000000045c11.2 0 19.2 9.6 19.2 19.2v100.8c113.6 3.2 204.8 94.4 204.8 209.6 0 11.2-9.6 19.2-19.2 19.2s-19.2-9.6-19.2-19.2c0-92.8-75.2-169.6-169.6-169.6h-30.4c-92.8 0-169.6 75.2-169.6 169.6 0 11.2-9.6 19.2-19.2 19.2s-19.2-9.6-19.2-19.2c0-113.6 91.2-206.4 204.8-209.6V64c-3.2-11.2 6.4-20.8 17.6-20.8z"  horiz-adv-x="1024" />

    
    <glyph glyph-name="mic-off" unicode="&#952;" d="M513.6 43.200000000000045c11.2 0 19.2 9.6 19.2 19.2v100.8c46.4 1.6 91.2 17.6 124.8 44.8l65.6-65.6 28.8 28.8-64 64c32 36.8 49.6 83.2 49.6 136 0 11.2-9.6 19.2-19.2 19.2s-19.2-9.6-19.2-19.2c0-40-14.4-78.4-38.4-107.2l-49.6 49.6c12.8 19.2 20.8 41.6 20.8 65.6V593.6c0 62.4-51.2 113.6-113.6 113.6h-8c-62.4 0-113.6-51.2-113.6-113.6v-64l-84.8 84.8-28.8-28.8 112-112v-91.2c0-62.4 51.2-113.6 113.6-113.6h8c24 0 46.4 8 64 19.2l48-48c-28.8-20.8-64-33.6-100.8-33.6h-30.4c-92.8 0-169.6 75.2-169.6 169.6 0 11.2-9.6 19.2-19.2 19.2s-19.2-9.6-19.2-19.2c0-113.6 91.2-206.4 204.8-209.6V64c-1.6-11.2 8-20.8 19.2-20.8z m-78.4 550.4c0 40 33.6 73.6 73.6 73.6h8c40 0 73.6-33.6 73.6-73.6v-212.8c0-12.8-3.2-25.6-9.6-36.8l-145.6 145.6v104z m81.6-286.4h-8c-40 0-73.6 33.6-73.6 73.6V432l116.8-116.8c-11.2-3.2-22.4-8-35.2-8z"  horiz-adv-x="1024" />

    
    <glyph glyph-name="mic-record" unicode="&#51;" d="M516.8 267.20000000000005c62.4 0 113.6 51.2 113.6 113.6V593.6c0 62.4-51.2 113.6-113.6 113.6h-8c-62.4 0-113.6-51.2-113.6-113.6v-212.8c0-62.4 51.2-113.6 113.6-113.6h8z m-81.6 113.6V593.6c0 40 33.6 73.6 73.6 73.6h8c40 0 73.6-33.6 73.6-73.6v-212.8c0-40-33.6-73.6-73.6-73.6h-8c-40 0-73.6 33.6-73.6 73.6zM555.2 393.6V582.4c0 24-19.2 41.6-41.6 41.6-24 0-41.6-19.2-41.6-41.6v-187.2c0-24 19.2-41.6 41.6-41.6 22.4-1.6 41.6 17.6 41.6 40zM513.6 43.200000000000045c11.2 0 19.2 9.6 19.2 19.2v100.8c113.6 3.2 204.8 94.4 204.8 209.6 0 11.2-9.6 19.2-19.2 19.2s-19.2-9.6-19.2-19.2c0-92.8-75.2-169.6-169.6-169.6h-30.4c-92.8 0-169.6 75.2-169.6 169.6 0 11.2-9.6 19.2-19.2 19.2s-19.2-9.6-19.2-19.2c0-113.6 91.2-206.4 204.8-209.6V64c-3.2-11.2 6.4-20.8 17.6-20.8z"  horiz-adv-x="1024" />

    
    <glyph glyph-name="circle-black" unicode="&#136;" d="M513.6 384m-464 0a464 464 0 1 1 928 0 464 464 0 1 1-928 0Z"  horiz-adv-x="1024" />

    
    <glyph glyph-name="back" unicode="&#52;" d="M622.4 620.8L385.6 384l236.8-236.8 28.8 28.8-208 208 208 208z"  horiz-adv-x="1024" />

    
    <glyph glyph-name="end" unicode="&#145;" d="M513.6 864c-264 0-480-216-480-480s216-480 480-480 480 216 480 480-216 480-480 480z m0-928c-246.4 0-448 201.6-448 448s201.6 448 448 448 448-201.6 448-448-201.6-448-448-448zM492.8 656h40v-232h-40zM600 601.6l-14.4-36.8c70.4-28.8 116.8-97.6 116.8-174.4 0-104-84.8-188.8-188.8-188.8s-188.8 84.8-188.8 188.8c0 76.8 46.4 145.6 116.8 174.4l-14.4 36.8c-86.4-35.2-140.8-118.4-140.8-211.2 0-126.4 102.4-227.2 227.2-227.2s227.2 102.4 227.2 227.2c0 92.8-56 176-140.8 211.2z"  horiz-adv-x="1024" />

    
    <glyph glyph-name="close" unicode="&#67;" d="M659.2 558.4l-145.6-145.6-145.6 145.6-28.8-28.8 145.6-145.6-145.6-145.6 28.8-28.8 145.6 145.6 145.6-145.6 28.8 28.8-147.2 145.6 147.2 145.6z"  horiz-adv-x="1024" />

    
    <glyph glyph-name="also" unicode="&#66;" d="M492.8 560h40v-240h-40zM513.6 244.79999999999995m-28.8 0a28.8 28.8 0 1 1 57.6 0 28.8 28.8 0 1 1-57.6 0Z"  horiz-adv-x="1024" />

    
    <glyph glyph-name="end-black" unicode="&#144;" d="M513.6 848c-256 0-464-208-464-464s208-464 464-464 464 208 464 464-208 464-464 464z m-20.8-192h40v-232h-40V656z m20.8-494.4c-126.4 0-227.2 102.4-227.2 227.2 0 92.8 56 176 140.8 211.2l14.4-36.8c-70.4-28.8-116.8-97.6-116.8-174.4 0-104 84.8-188.8 188.8-188.8s188.8 84.8 188.8 188.8c0 76.8-46.4 145.6-116.8 174.4l14.4 36.8c86.4-35.2 140.8-118.4 140.8-211.2 0-124.8-102.4-227.2-227.2-227.2z"  horiz-adv-x="1024" />

    
    <glyph glyph-name="easemob" unicode="&#69;" d="M753.6 387.2l-115.2-190.4H408l-113.6 190.4L408 576h230.4l-115.2-188.8H348.8l86.4-142.4h176L726.4 432l27.2 46.4-88 145.6H382.4l-144-236.8 144-238.4h283.2l144 238.4-28.8 44.8z"  horiz-adv-x="1024" />

    
    <glyph glyph-name="mini" unicode="&#70;" d="M353.6 395.2h336v-40h-336z"  horiz-adv-x="1024" />

    
    <glyph glyph-name="image-broken" unicode="&#73;" d="M324.8-1.6000000000000227L33.6 289.6v-377.6h880l-336 337.6zM33.6 496l292.8-292.8 251.2 251.2 416-416V856h-960V496z m651.2 180.8c3.2 4.8 6.4 8 11.2 11.2 80 52.8 164.8-33.6 112-112-3.2-4.8-6.4-8-11.2-11.2-80-54.4-164.8 32-112 112z"  horiz-adv-x="1024" />

    
    <glyph glyph-name="point-1" unicode="&#65;" d="M513.6 384m-320 0a320 320 0 1 1 640 0 320 320 0 1 1-640 0Z"  horiz-adv-x="1024" />

    
    <glyph glyph-name="left-black" unicode="&#41074;" d="M638.34693531 207.94279505999998V570.41351111l-256.83639309-182.27098864z"  horiz-adv-x="1024" />

    
    <glyph glyph-name="right-black" unicode="&#41073;" d="M389.79558717 207.94279505999998l256.83639308 180.19972741L389.79558717 570.41351111z"  horiz-adv-x="1024" />

    
    <glyph glyph-name="file-download" unicode="&#131;" d="M105.6-64h622.4L912 113.60000000000002V843.2H105.6V-64z m632 54.4v124.8h129.6l-129.6-124.8zM137.6 811.2h744v-665.6h-176V-32H137.6V811.2zM532.8 179.20000000000005l168 168-27.2 28.8-140.8-139.2V632h-40v-395.2l-139.2 139.2-28.8-28.8 168-168h1.6l19.2-19.2 17.6 19.2h1.6z"  horiz-adv-x="1024" />

    
    <glyph glyph-name="point-2" unicode="&#77;" d="M657.6 688h-288c-168 0-304-136-304-304s136-304 304-304h288c168 0 304 136 304 304 0 166.4-137.6 304-304 304z"  horiz-adv-x="1024" />

    
    <glyph glyph-name="map" unicode="&#130;" d="M688 520c57.6 0 105.6 48 105.6 105.6s-48 105.6-105.6 105.6-105.6-48-105.6-105.6 46.4-105.6 105.6-105.6z m0 179.2c40 0 73.6-33.6 73.6-73.6s-33.6-73.6-73.6-73.6-73.6 33.6-73.6 73.6 32 73.6 73.6 73.6zM688 864c-91.2 0-169.6-52.8-209.6-128H49.6v-816h928V736h-80C857.6 811.2 777.6 864 688 864z m0-32c112 0 203.2-91.2 203.2-203.2 0-44.8-14.4-88-41.6-123.2L688 342.4 526.4 505.6c-27.2 35.2-41.6 78.4-41.6 123.2C484.8 740.8 576 832 688 832z m-430.4-128v-400c0-25.6-20.8-48-48-48h-128V704h176z m-176-592h128c25.6 0 48-20.8 48-48v-112h-176V112z m208-160v112c0 43.2-35.2 80-80 80h-128v80h128c43.2 0 80 35.2 80 80V704h80v-400c0-43.2 35.2-80 80-80h496v-272h-656z m656 752v-448H448c-25.6 0-48 20.8-48 48V704h64c-8-24-12.8-49.6-12.8-75.2 0-52.8 17.6-102.4 49.6-144L688 297.6l184 187.2 1.6 1.6c32 41.6 49.6 91.2 49.6 144 0 25.6-4.8 51.2-12.8 75.2h35.2z"  horiz-adv-x="1024" />

    
    <glyph glyph-name="select" unicode="&#50;" d="M449.6 457.6h128l-64 100.8zM513.6 209.60000000000002l64 100.8h-128z"  horiz-adv-x="1024" />

    
    <glyph glyph-name="message" unicode="&#123;" d="M515.2 846.4C260.8 846.4 52.8 638.4 52.8 384c0-83.2 22.4-164.8 65.6-236.8L67.2-16l-17.6-57.6 57.6 17.6 161.6 49.6c73.6-46.4 158.4-72 246.4-72 254.4 0 462.4 208 462.4 462.4 0 123.2-48 240-136 326.4-86.4 88-203.2 136-326.4 136z m0-892.8c-81.6 0-160 22.4-230.4 67.2-4.8 3.2-11.2 4.8-16 4.8-3.2 0-6.4 0-9.6-1.6L97.6-25.600000000000023l51.2 164.8c3.2 8 1.6 17.6-3.2 25.6-40 65.6-60.8 142.4-60.8 219.2 0 236.8 193.6 430.4 430.4 430.4C752 814.4 945.6 620.8 945.6 384c0-236.8-193.6-430.4-430.4-430.4zM291.2 424c-9.6 0-16-6.4-16-16s6.4-16 16-16h1.6c9.6 0 16 6.4 16 16s-9.6 16-17.6 16zM734.4 424c-9.6 0-16-6.4-16-16s6.4-16 16-16h1.6c9.6 0 16 6.4 16 16s-8 16-17.6 16zM512 424c-9.6 0-16-6.4-16-16s6.4-16 16-16h1.6c9.6 0 16 6.4 16 16s-8 16-17.6 16z"  horiz-adv-x="1024" />

    
    <glyph glyph-name="circle" unicode="&#137;" d="M513.6 864c-264 0-480-216-480-480s216-480 480-480 480 216 480 480-216 480-480 480z m0-928c-246.4 0-448 201.6-448 448s201.6 448 448 448 448-201.6 448-448-201.6-448-448-448z"  horiz-adv-x="1024" />

    
    <glyph glyph-name="change-copy" unicode="&#954;" d="M529.6 75.20000000000005h121.6c8 0 16 4.8 19.2 12.8 3.2 8 1.6 16-4.8 22.4L550.4 224l-28.8-28.8 80-80H528c-147.2 0-268.8 120-268.8 268.8 0 72 27.2 139.2 78.4 188.8l-28.8 28.8c-57.6-57.6-89.6-136-89.6-217.6 1.6-169.6 140.8-308.8 310.4-308.8zM529.6 691.2h-105.6c-8 0-16-4.8-19.2-12.8-3.2-8-1.6-16 4.8-22.4l113.6-113.6 28.8 28.8-80 80h57.6c147.2 0 268.8-120 268.8-268.8 0-72-27.2-139.2-78.4-188.8l28.8-28.8c57.6 57.6 89.6 136 89.6 217.6-1.6 171.2-139.2 308.8-308.8 308.8z"  horiz-adv-x="1024" />

    
    <glyph glyph-name="mute-copy" unicode="&#41075;" d="M652.8 177.60000000000002l-137.6 132.8c-4.8 4.8-11.2 6.4-17.6 4.8h-115.2v137.6H496c6.4-1.6 14.4 0 20.8 4.8l137.6 132.8v-80h40v112c0 9.6-6.4 19.2-14.4 24-9.6 4.8-20.8 3.2-28.8-3.2 0 0-1.6 0-1.6-1.6L496 492.8h-132.8c-11.2 0-19.2-9.6-19.2-19.2v-177.6c0-11.2 9.6-19.2 19.2-19.2H496l153.6-148.8s1.6 0 1.6-1.6c4.8-3.2 11.2-6.4 16-6.4 3.2 0 8 1.6 11.2 3.2 9.6 4.8 14.4 14.4 14.4 24v107.2h-40v-76.8zM803.2 478.4l-65.6-65.6-65.6 65.6-28.8-28.8 65.6-65.6-65.6-65.6 28.8-28.8 65.6 65.6 65.6-65.6 28.8 28.8-67.2 65.6 67.2 65.6z"  horiz-adv-x="1024" />

    


  </font>
</defs>
</svg>
